<svg xmlns="http://www.w3.org/2000/svg" viewBox="0 0 400 300">
  <defs>
    <linearGradient id="bg" x1="0" y1="0" x2="1" y2="1"><stop offset="0%" stop-color="#100808"/><stop offset="100%" stop-color="#2a1010"/></linearGradient>
    <linearGradient id="meat" x1="0" y1="0" x2="0" y2="1"><stop offset="0%" stop-color="#a03020"/><stop offset="100%" stop-color="#6a1808"/></linearGradient>
    <filter id="glow"><feGaussianBlur stdDeviation="3" result="b"/><feMerge><feMergeNode in="b"/><feMergeNode in="SourceGraphic"/></feMerge></filter>
  </defs>
  <rect width="400" height="300" fill="url(#bg)"/>
  <ellipse cx="200" cy="225" rx="165" ry="52" fill="#e8ddd0"/>
  <ellipse cx="200" cy="220" rx="155" ry="45" fill="#f5ede0"/>
  <!-- meat chunks -->
  <rect x="85" y="175" width="55" height="45" rx="12" fill="url(#meat)" filter="url(#glow)"/>
  <rect x="90" y="182" width="45" height="7" rx="3" fill="#8b1a08" opacity="0.6"/>
  <rect x="90" y="198" width="45" height="7" rx="3" fill="#8b1a08" opacity="0.6"/>
  <rect x="155" y="168" width="55" height="48" rx="12" fill="#9a2818" filter="url(#glow)"/>
  <rect x="160" y="176" width="45" height="7" rx="3" fill="#8b1a08" opacity="0.6"/>
  <rect x="160" y="192" width="45" height="7" rx="3" fill="#8b1a08" opacity="0.6"/>
  <rect x="225" y="173" width="50" height="44" rx="12" fill="url(#meat)" filter="url(#glow)"/>
  <rect x="230" y="181" width="40" height="7" rx="3" fill="#8b1a08" opacity="0.6"/>
  <!-- herbs -->
  <path d="M130 175 Q140 162 150 172" fill="#3a7a18"/>
  <circle cx="270" cy="178" r="8" fill="#4a8a28"/>
  <text x="200" y="288" text-anchor="middle" font-family="Arabic Typesetting,Traditional Arabic,serif" font-size="15" fill="#c9953a">تكّة اللحم</text>
</svg>
